<mxfile host="app.diagrams.net" agent="Mozilla/5.0 (Macintosh; Intel Mac OS X 10_15_7) AppleWebKit/605.1.15 (KHTML, like Gecko) Version/17.5 Safari/605.1.15" version="25.0.3">
  <diagram name="Page-1" id="5yGcz9tyB1f-IQo3r8aF">
    <mxGraphModel dx="1406" dy="951" grid="1" gridSize="10" guides="1" tooltips="1" connect="1" arrows="1" fold="1" page="1" pageScale="1" pageWidth="850" pageHeight="1100" math="0" shadow="0">
      <root>
        <mxCell id="0" />
        <mxCell id="1" parent="0" />
        <mxCell id="OznWHyD4KgbOBWwyDmDh-23" style="edgeStyle=orthogonalEdgeStyle;rounded=0;orthogonalLoop=1;jettySize=auto;html=1;entryX=0;entryY=0.5;entryDx=0;entryDy=0;" edge="1" parent="1" source="OznWHyD4KgbOBWwyDmDh-1" target="OznWHyD4KgbOBWwyDmDh-4">
          <mxGeometry relative="1" as="geometry" />
        </mxCell>
        <mxCell id="OznWHyD4KgbOBWwyDmDh-24" style="edgeStyle=orthogonalEdgeStyle;rounded=0;orthogonalLoop=1;jettySize=auto;html=1;entryX=0;entryY=0.5;entryDx=0;entryDy=0;" edge="1" parent="1" source="OznWHyD4KgbOBWwyDmDh-1" target="OznWHyD4KgbOBWwyDmDh-5">
          <mxGeometry relative="1" as="geometry" />
        </mxCell>
        <mxCell id="OznWHyD4KgbOBWwyDmDh-25" style="edgeStyle=orthogonalEdgeStyle;rounded=0;orthogonalLoop=1;jettySize=auto;html=1;entryX=0;entryY=0.5;entryDx=0;entryDy=0;" edge="1" parent="1" source="OznWHyD4KgbOBWwyDmDh-1" target="OznWHyD4KgbOBWwyDmDh-6">
          <mxGeometry relative="1" as="geometry" />
        </mxCell>
        <mxCell id="OznWHyD4KgbOBWwyDmDh-26" style="edgeStyle=orthogonalEdgeStyle;rounded=0;orthogonalLoop=1;jettySize=auto;html=1;entryX=0;entryY=0.5;entryDx=0;entryDy=0;" edge="1" parent="1" source="OznWHyD4KgbOBWwyDmDh-1" target="OznWHyD4KgbOBWwyDmDh-7">
          <mxGeometry relative="1" as="geometry" />
        </mxCell>
        <mxCell id="OznWHyD4KgbOBWwyDmDh-27" style="edgeStyle=orthogonalEdgeStyle;rounded=0;orthogonalLoop=1;jettySize=auto;html=1;entryX=0;entryY=0.5;entryDx=0;entryDy=0;" edge="1" parent="1" source="OznWHyD4KgbOBWwyDmDh-1" target="OznWHyD4KgbOBWwyDmDh-8">
          <mxGeometry relative="1" as="geometry" />
        </mxCell>
        <mxCell id="OznWHyD4KgbOBWwyDmDh-29" style="edgeStyle=orthogonalEdgeStyle;rounded=0;orthogonalLoop=1;jettySize=auto;html=1;entryX=0;entryY=0.5;entryDx=0;entryDy=0;" edge="1" parent="1" source="OznWHyD4KgbOBWwyDmDh-1" target="OznWHyD4KgbOBWwyDmDh-9">
          <mxGeometry relative="1" as="geometry" />
        </mxCell>
        <mxCell id="OznWHyD4KgbOBWwyDmDh-1" value="USER" style="shape=umlActor;verticalLabelPosition=bottom;verticalAlign=top;html=1;outlineConnect=0;" vertex="1" parent="1">
          <mxGeometry x="90" y="250" width="30" height="60" as="geometry" />
        </mxCell>
        <mxCell id="OznWHyD4KgbOBWwyDmDh-4" value="REGISTRAZIONE" style="ellipse;whiteSpace=wrap;html=1;" vertex="1" parent="1">
          <mxGeometry x="200" y="30" width="180" height="50" as="geometry" />
        </mxCell>
        <mxCell id="OznWHyD4KgbOBWwyDmDh-5" value="LOGIN" style="ellipse;whiteSpace=wrap;html=1;" vertex="1" parent="1">
          <mxGeometry x="200" y="100" width="180" height="50" as="geometry" />
        </mxCell>
        <mxCell id="OznWHyD4KgbOBWwyDmDh-6" value="INSERIRE SPESA" style="ellipse;whiteSpace=wrap;html=1;" vertex="1" parent="1">
          <mxGeometry x="200" y="190" width="180" height="50" as="geometry" />
        </mxCell>
        <mxCell id="OznWHyD4KgbOBWwyDmDh-7" value="INSERIRE PROGETTO" style="ellipse;whiteSpace=wrap;html=1;" vertex="1" parent="1">
          <mxGeometry x="200" y="270" width="180" height="50" as="geometry" />
        </mxCell>
        <mxCell id="OznWHyD4KgbOBWwyDmDh-8" value="INSERIRE ENTRATA" style="ellipse;whiteSpace=wrap;html=1;" vertex="1" parent="1">
          <mxGeometry x="200" y="360" width="180" height="50" as="geometry" />
        </mxCell>
        <mxCell id="OznWHyD4KgbOBWwyDmDh-9" value="REGISTRARE FIGLIO" style="ellipse;whiteSpace=wrap;html=1;" vertex="1" parent="1">
          <mxGeometry x="200" y="460" width="180" height="50" as="geometry" />
        </mxCell>
        <mxCell id="OznWHyD4KgbOBWwyDmDh-10" value="EDITARE SPESE" style="ellipse;whiteSpace=wrap;html=1;" vertex="1" parent="1">
          <mxGeometry x="490" y="190" width="180" height="50" as="geometry" />
        </mxCell>
        <mxCell id="OznWHyD4KgbOBWwyDmDh-11" value="EDITARE PROGETTO" style="ellipse;whiteSpace=wrap;html=1;" vertex="1" parent="1">
          <mxGeometry x="490" y="270" width="180" height="50" as="geometry" />
        </mxCell>
        <mxCell id="OznWHyD4KgbOBWwyDmDh-12" value="AGGIUNGERE PARTECIPANTI" style="ellipse;whiteSpace=wrap;html=1;" vertex="1" parent="1">
          <mxGeometry x="800" y="220" width="180" height="50" as="geometry" />
        </mxCell>
        <mxCell id="OznWHyD4KgbOBWwyDmDh-13" value="AGGIUNGERE SPESE" style="ellipse;whiteSpace=wrap;html=1;" vertex="1" parent="1">
          <mxGeometry x="790" y="320" width="180" height="50" as="geometry" />
        </mxCell>
        <mxCell id="OznWHyD4KgbOBWwyDmDh-14" value="EDITARE ENTRATA" style="ellipse;whiteSpace=wrap;html=1;" vertex="1" parent="1">
          <mxGeometry x="490" y="360" width="180" height="50" as="geometry" />
        </mxCell>
        <mxCell id="OznWHyD4KgbOBWwyDmDh-15" value="MONITORARE FIGLIO" style="ellipse;whiteSpace=wrap;html=1;" vertex="1" parent="1">
          <mxGeometry x="490" y="460" width="180" height="50" as="geometry" />
        </mxCell>
        <mxCell id="OznWHyD4KgbOBWwyDmDh-16" value="&amp;lt;&amp;lt; INCLUDE &amp;gt;&amp;gt;" style="text;html=1;align=center;verticalAlign=middle;whiteSpace=wrap;rounded=0;" vertex="1" parent="1">
          <mxGeometry x="380" y="200" width="110" height="30" as="geometry" />
        </mxCell>
        <mxCell id="OznWHyD4KgbOBWwyDmDh-17" value="&amp;lt;&amp;lt; INCLUDE &amp;gt;&amp;gt;" style="text;html=1;align=center;verticalAlign=middle;whiteSpace=wrap;rounded=0;" vertex="1" parent="1">
          <mxGeometry x="380" y="280" width="110" height="30" as="geometry" />
        </mxCell>
        <mxCell id="OznWHyD4KgbOBWwyDmDh-18" value="&amp;lt;&amp;lt; INCLUDE &amp;gt;&amp;gt;" style="text;html=1;align=center;verticalAlign=middle;whiteSpace=wrap;rounded=0;" vertex="1" parent="1">
          <mxGeometry x="380" y="370" width="110" height="30" as="geometry" />
        </mxCell>
        <mxCell id="OznWHyD4KgbOBWwyDmDh-19" value="&amp;lt;&amp;lt; INCLUDE &amp;gt;&amp;gt;" style="text;html=1;align=center;verticalAlign=middle;whiteSpace=wrap;rounded=0;" vertex="1" parent="1">
          <mxGeometry x="380" y="470" width="110" height="30" as="geometry" />
        </mxCell>
        <mxCell id="OznWHyD4KgbOBWwyDmDh-20" value="&amp;lt;&amp;lt; INCLUDE &amp;gt;&amp;gt;" style="text;html=1;align=center;verticalAlign=middle;whiteSpace=wrap;rounded=0;" vertex="1" parent="1">
          <mxGeometry x="670" y="280" width="110" height="30" as="geometry" />
        </mxCell>
        <mxCell id="OznWHyD4KgbOBWwyDmDh-21" style="edgeStyle=orthogonalEdgeStyle;rounded=0;orthogonalLoop=1;jettySize=auto;html=1;entryX=0.056;entryY=0.8;entryDx=0;entryDy=0;entryPerimeter=0;" edge="1" parent="1" target="OznWHyD4KgbOBWwyDmDh-12">
          <mxGeometry relative="1" as="geometry">
            <mxPoint x="770" y="295.0000000000002" as="sourcePoint" />
          </mxGeometry>
        </mxCell>
        <mxCell id="OznWHyD4KgbOBWwyDmDh-22" style="edgeStyle=orthogonalEdgeStyle;rounded=0;orthogonalLoop=1;jettySize=auto;html=1;entryX=0.111;entryY=0.14;entryDx=0;entryDy=0;entryPerimeter=0;" edge="1" parent="1" target="OznWHyD4KgbOBWwyDmDh-13">
          <mxGeometry relative="1" as="geometry">
            <mxPoint x="770" y="295.0000000000002" as="sourcePoint" />
          </mxGeometry>
        </mxCell>
      </root>
    </mxGraphModel>
  </diagram>
</mxfile>
